<?xml version="1.0" encoding="UTF-8" standalone="no"?><svg xmlns="http://www.w3.org/2000/svg" xmlns:xlink="http://www.w3.org/1999/xlink" contentScriptType="application/ecmascript" contentStyleType="text/css" height="550px" preserveAspectRatio="none" style="width:757px;height:550px;" version="1.1" viewBox="0 0 757 550" width="757px" zoomAndPan="magnify"><defs><filter height="300%" id="f71igrb" width="300%" x="-1" y="-1"><feGaussianBlur result="blurOut" stdDeviation="2.0"/><feColorMatrix in="blurOut" result="blurOut2" type="matrix" values="0 0 0 0 0 0 0 0 0 0 0 0 0 0 0 0 0 0 .4 0"/><feOffset dx="4.0" dy="4.0" in="blurOut2" result="blurOut3"/><feBlend in="SourceGraphic" in2="blurOut3" mode="normal"/></filter></defs><g><!--entity Component--><ellipse cx="236.202" cy="528" fill="#FF0000" filter="url(#f71igrb)" rx="8" ry="8" style="stroke: #808080; stroke-width: 2.0;"/><text fill="#000000" font-family="sans-serif" font-size="14" lengthAdjust="spacingAndGlyphs" textLength="82" x="195.202" y="549.9951">Component</text><!--entity Source--><ellipse cx="261.202" cy="307" fill="#008000" filter="url(#f71igrb)" rx="8" ry="8" style="stroke: #808080; stroke-width: 2.0;"/><text fill="#000000" font-family="sans-serif" font-size="14" lengthAdjust="spacingAndGlyphs" textLength="49" x="236.702" y="328.9951">Source</text><!--entity Source2--><ellipse cx="271.202" cy="50.5" fill="#008000" filter="url(#f71igrb)" rx="8" ry="8" style="stroke: #808080; stroke-width: 2.0;"/><text fill="#000000" font-family="sans-serif" font-size="14" lengthAdjust="spacingAndGlyphs" textLength="58" x="242.202" y="72.4951">Source2</text><!--entity Hook--><ellipse cx="228.202" cy="179" fill="#00FFFF" filter="url(#f71igrb)" rx="8" ry="8" style="stroke: #808080; stroke-width: 2.0;"/><text fill="#000000" font-family="sans-serif" font-size="14" lengthAdjust="spacingAndGlyphs" textLength="36" x="210.202" y="200.9951">Hook</text><!--entity Hook2--><ellipse cx="375.202" cy="179" fill="#00FFFF" filter="url(#f71igrb)" rx="8" ry="8" style="stroke: #808080; stroke-width: 2.0;"/><text fill="#000000" font-family="sans-serif" font-size="14" lengthAdjust="spacingAndGlyphs" textLength="45" x="352.702" y="200.9951">Hook2</text><!--entity Derivable--><ellipse cx="359.202" cy="433" fill="#D3D3D3" filter="url(#f71igrb)" rx="8" ry="8" style="stroke: #808080; stroke-width: 2.0;"/><text fill="#000000" font-family="sans-serif" font-size="14" lengthAdjust="spacingAndGlyphs" textLength="64" x="327.202" y="454.9951">Derivable</text><!--entity Derivable2--><ellipse cx="311.202" cy="243" fill="#D3D3D3" filter="url(#f71igrb)" rx="8" ry="8" style="stroke: #808080; stroke-width: 2.0;"/><text fill="#000000" font-family="sans-serif" font-size="14" lengthAdjust="spacingAndGlyphs" textLength="73" x="274.702" y="264.9951">Derivable2</text><!--entity Action--><ellipse cx="43.2019" cy="179" fill="#FF00FF" filter="url(#f71igrb)" rx="8" ry="8" style="stroke: #808080; stroke-width: 2.0;"/><text fill="#000000" font-family="sans-serif" font-size="14" lengthAdjust="spacingAndGlyphs" textLength="43" x="21.7019" y="200.9951">Action</text><!--entity Status--><ellipse cx="166.202" cy="433" fill="#FFFF00" filter="url(#f71igrb)" rx="8" ry="8" style="stroke: #808080; stroke-width: 2.0;"/><text fill="#000000" font-family="sans-serif" font-size="14" lengthAdjust="spacingAndGlyphs" textLength="44" x="144.202" y="454.9951">Status</text><polygon fill="#FBFB77" filter="url(#f71igrb)" points="335.702,8,335.702,108.7969,748.702,108.7969,748.702,18,738.702,8,335.702,8" style="stroke: #A80036; stroke-width: 1.0;"/><line style="stroke: #A80036; stroke-width: 1.0;" x1="738.702" x2="738.702" y1="8" y2="18"/><line style="stroke: #A80036; stroke-width: 1.0;" x1="748.702" x2="738.702" y1="18" y2="18"/><text fill="#000000" font-family="sans-serif" font-size="13" font-weight="bold" lengthAdjust="spacingAndGlyphs" textLength="85" x="341.702" y="25.0669">Component</text><text fill="#000000" font-family="sans-serif" font-size="13" lengthAdjust="spacingAndGlyphs" textLength="146" x="430.702" y="25.0669">- Pure function with JSX</text><text fill="#000000" font-family="sans-serif" font-size="13" font-weight="bold" lengthAdjust="spacingAndGlyphs" textLength="50" x="341.702" y="40.1997">Source</text><text fill="#000000" font-family="sans-serif" font-size="13" lengthAdjust="spacingAndGlyphs" textLength="159" x="395.702" y="40.1997">- Only data struct: model</text><text fill="#000000" font-family="sans-serif" font-size="13" font-weight="bold" lengthAdjust="spacingAndGlyphs" textLength="38" x="341.702" y="55.3325">Hook</text><text fill="#000000" font-family="sans-serif" font-size="13" lengthAdjust="spacingAndGlyphs" textLength="262" x="383.702" y="55.3325">- Source lifecycle callbacks: pull, put,reap</text><text fill="#000000" font-family="sans-serif" font-size="13" font-weight="bold" lengthAdjust="spacingAndGlyphs" textLength="70" x="341.702" y="70.4653">Derivable</text><text fill="#000000" font-family="sans-serif" font-size="13" lengthAdjust="spacingAndGlyphs" textLength="271" x="415.702" y="70.4653">- Derivable from source: or other derivable</text><text fill="#000000" font-family="sans-serif" font-size="13" font-weight="bold" lengthAdjust="spacingAndGlyphs" textLength="46" x="341.702" y="85.5981">Action</text><text fill="#000000" font-family="sans-serif" font-size="13" lengthAdjust="spacingAndGlyphs" textLength="268" x="391.702" y="85.5981">- Univeral source manager, modify source</text><text fill="#000000" font-family="sans-serif" font-size="13" font-weight="bold" lengthAdjust="spacingAndGlyphs" textLength="47" x="341.702" y="100.731">Status</text><text fill="#000000" font-family="sans-serif" font-size="13" lengthAdjust="spacingAndGlyphs" textLength="341" x="392.702" y="100.731">- Grab and combine sources statuses from any entity</text><path d="M178.395,458.1994 C190.239,473.9353 208.256,497.8713 221.023,514.8334 " fill="none" style="stroke: #808080; stroke-width: 1.0;"/><polygon fill="#808080" points="224.149,518.9863,221.9335,509.3899,221.1426,514.9911,215.5413,514.2002,224.149,518.9863" style="stroke: #808080; stroke-width: 1.0;"/><path d="M236.438,327.292 C221.722,335.139 203.737,346.897 192.202,362 C179.403,378.757 172.718,402.146 169.352,418.935 " fill="none" style="stroke: #808080; stroke-width: 1.0; stroke-dasharray: 7.0,7.0;"/><polygon fill="#808080" points="168.411,423.918,174.0125,415.8172,169.3393,419.0049,166.1516,414.3318,168.411,423.918" style="stroke: #808080; stroke-width: 1.0;"/><text fill="#000000" font-family="sans-serif" font-size="13" lengthAdjust="spacingAndGlyphs" textLength="55" x="193.202" y="375.0669">Grabbed</text><text fill="#000000" font-family="sans-serif" font-size="13" lengthAdjust="spacingAndGlyphs" textLength="19" x="211.202" y="390.1997">src</text><path d="M256.452,75.849 C238.682,96.387 209.116,133.393 192.202,170 C152.832,255.207 159.007,371.405 163.671,418.684 " fill="none" style="stroke: #808080; stroke-width: 1.0; stroke-dasharray: 7.0,7.0;"/><polygon fill="#808080" points="164.201,423.837,167.2593,414.475,163.6895,418.8632,159.3012,415.2934,164.201,423.837" style="stroke: #808080; stroke-width: 1.0;"/><text fill="#000000" font-family="sans-serif" font-size="13" lengthAdjust="spacingAndGlyphs" textLength="55" x="173.202" y="248.0669">Grabbed</text><text fill="#000000" font-family="sans-serif" font-size="13" lengthAdjust="spacingAndGlyphs" textLength="19" x="191.202" y="263.1997">src</text><path d="M259.631,332.143 C258.075,347.923 255.586,372.625 253.202,394 C248.461,436.5 242.341,486.1313 238.887,513.724 " fill="none" style="stroke: #808080; stroke-width: 1.0;"/><polygon fill="#808080" points="238.232,518.94,243.321,510.5078,238.8542,513.9789,235.3831,509.5122,238.232,518.94" style="stroke: #808080; stroke-width: 1.0;"/><path d="M195.073,521.7387 C143.676,502.6853 58.0028,462.1435 21.2019,394 C-11.5114,333.425 16.9921,248.272 33.4587,209.157 " fill="none" style="stroke: #808080; stroke-width: 1.0;"/><polygon fill="#808080" points="35.5972,204.173,28.3726,210.8667,33.6257,208.7679,35.7245,214.021,35.5972,204.173" style="stroke: #808080; stroke-width: 1.0;"/><text fill="#000000" font-family="sans-serif" font-size="13" lengthAdjust="spacingAndGlyphs" textLength="36" x="31.2019" y="375.0669">Event</text><text fill="#000000" font-family="sans-serif" font-size="13" lengthAdjust="spacingAndGlyphs" textLength="54" x="22.2019" y="390.1997">changes</text><path d="M64.7858,187 C99.8526,187 168.902,187 204.99,187 " fill="none" style="stroke: #808080; stroke-width: 1.0; stroke-dasharray: 7.0,7.0;"/><polygon fill="#808080" points="210.067,187,201.067,183,205.067,187,201.067,191,210.067,187" style="stroke: #808080; stroke-width: 1.0;"/><text fill="#000000" font-family="sans-serif" font-size="13" lengthAdjust="spacingAndGlyphs" textLength="96" x="89.4519" y="165.0669">Change source</text><text fill="#000000" font-family="sans-serif" font-size="13" lengthAdjust="spacingAndGlyphs" textLength="60" x="107.4519" y="180.1997">via hooks</text><path d="M64.9109,176.174 C110.682,154.842 220.078,111.76 307.702,139.5 C324.64,144.862 341.004,156.172 353.377,166.411 " fill="none" style="stroke: #808080; stroke-width: 1.0; stroke-dasharray: 7.0,7.0;"/><polygon fill="#808080" points="357.415,169.832,353.1336,160.9624,353.6,166.6,347.9624,167.0664,357.415,169.832" style="stroke: #808080; stroke-width: 1.0;"/><path d="M232.448,204.214 C238.364,226.801 249.094,267.769 255.641,292.768 " fill="none" style="stroke: #808080; stroke-width: 1.0;"/><polygon fill="#808080" points="256.972,297.848,258.5634,288.1286,255.7063,293.0109,250.824,290.1537,256.972,297.848" style="stroke: #808080; stroke-width: 1.0;"/><path d="M339.458,458.1288 C328.087,467.3165 313.463,478.9621 300.202,489 C288.25,498.0469 274.808,507.7744 263.339,515.9433 " fill="none" style="stroke: #808080; stroke-width: 1.0;"/><polygon fill="#808080" points="259.21,518.8783,268.863,516.9239,263.2852,515.9813,264.2278,510.4035,259.21,518.8783" style="stroke: #808080; stroke-width: 1.0;"/><path d="M274.014,332.211 C291.768,354.676 323.844,395.262 343.167,419.711 " fill="none" style="stroke: #808080; stroke-width: 1.0;"/><polygon fill="#808080" points="346.387,423.785,343.9452,414.2436,343.2869,419.862,337.6685,419.2037,346.387,423.785" style="stroke: #808080; stroke-width: 1.0;"/><path d="M188.341,441 C220.939,441 282.259,441 321.886,441 " fill="none" style="stroke: #808080; stroke-width: 1.0; stroke-dasharray: 7.0,7.0;"/><polygon fill="#808080" points="327.088,441,318.088,437,322.088,441,318.088,445,327.088,441" style="stroke: #808080; stroke-width: 1.0;"/><text fill="#000000" font-family="sans-serif" font-size="13" lengthAdjust="spacingAndGlyphs" textLength="54" x="230.702" y="434.0669">Grab src</text><path d="M144.018,423.858 C133.439,415.582 120.989,404.953 111.202,394 C89.1893,369.367 82.6029,362.62 70.2019,332 C53.3931,290.497 46.9341,237.979 44.5391,209.221 " fill="none" style="stroke: #808080; stroke-width: 1.0; stroke-dasharray: 7.0,7.0;"/><polygon fill="#808080" points="44.1376,204.136,40.8571,213.4225,44.5305,209.1205,48.8324,212.7939,44.1376,204.136" style="stroke: #808080; stroke-width: 1.0;"/><text fill="#000000" font-family="sans-serif" font-size="13" lengthAdjust="spacingAndGlyphs" textLength="54" x="71.2019" y="319.5669">Grab src</text><path d="M274.612,75.742 C281.845,110.186 298.717,190.539 306.77,228.895 " fill="none" style="stroke: #808080; stroke-width: 1.0;"/><polygon fill="#808080" points="307.8,233.799,309.8629,224.1686,306.7714,228.9059,302.0341,225.8144,307.8,233.799" style="stroke: #808080; stroke-width: 1.0;"/><path d="M315.294,268.029 C323.952,301.936 344.118,380.923 353.811,418.887 " fill="none" style="stroke: #808080; stroke-width: 1.0;"/><polygon fill="#808080" points="355.052,423.745,356.7006,414.0351,353.8148,418.9005,348.9494,416.0146,355.052,423.745" style="stroke: #808080; stroke-width: 1.0;"/><path d="M284.374,75.521 C303.259,98.492 338.019,140.772 358.627,165.839 " fill="none" style="stroke: #808080; stroke-width: 1.0;"/><polygon fill="#808080" points="361.809,169.709,359.1855,160.216,358.6346,165.846,353.0046,165.2951,361.809,169.709" style="stroke: #808080; stroke-width: 1.0;"/><path d="M265.756,75.521 C258.044,98.209 243.93,139.731 235.373,164.903 " fill="none" style="stroke: #808080; stroke-width: 1.0;"/><polygon fill="#808080" points="233.739,169.709,240.4217,162.4743,235.3475,164.9748,232.847,159.9006,233.739,169.709" style="stroke: #808080; stroke-width: 1.0;"/></g></svg>