<?xml version="1.0" encoding="UTF-8" standalone="no"?><svg xmlns="http://www.w3.org/2000/svg" xmlns:xlink="http://www.w3.org/1999/xlink" contentScriptType="application/ecmascript" contentStyleType="text/css" height="578px" preserveAspectRatio="none" style="width:673px;height:578px;" version="1.1" viewBox="0 0 673 578" width="673px" zoomAndPan="magnify"><defs><filter height="300%" id="fr5zqne" width="300%" x="-1" y="-1"><feGaussianBlur result="blurOut" stdDeviation="2.0"/><feColorMatrix in="blurOut" result="blurOut2" type="matrix" values="0 0 0 0 0 0 0 0 0 0 0 0 0 0 0 0 0 0 .4 0"/><feOffset dx="4.0" dy="4.0" in="blurOut2" result="blurOut3"/><feBlend in="SourceGraphic" in2="blurOut3" mode="normal"/></filter><filter height="1" id="bkp3v4u0" width="1" x="0" y="0"><feFlood flood-color="#FF7A7A" result="flood"/><feComposite in="SourceGraphic" in2="flood" operator="over"/></filter><filter height="1" id="bkp3v4u1" width="1" x="0" y="0"><feFlood flood-color="#7AFF7F" result="flood"/><feComposite in="SourceGraphic" in2="flood" operator="over"/></filter><filter height="1" id="bkp3v4u2" width="1" x="0" y="0"><feFlood flood-color="#7AFFFF" result="flood"/><feComposite in="SourceGraphic" in2="flood" operator="over"/></filter><filter height="1" id="bkp3v4u3" width="1" x="0" y="0"><feFlood flood-color="#D1DAFF" result="flood"/><feComposite in="SourceGraphic" in2="flood" operator="over"/></filter><filter height="1" id="bkp3v4u4" width="1" x="0" y="0"><feFlood flood-color="#FF7AFF" result="flood"/><feComposite in="SourceGraphic" in2="flood" operator="over"/></filter><filter height="1" id="bkp3v4u5" width="1" x="0" y="0"><feFlood flood-color="#FFEF7A" result="flood"/><feComposite in="SourceGraphic" in2="flood" operator="over"/></filter></defs><g><text fill="#000000" font-family="sans-serif" font-size="18" lengthAdjust="spacingAndGlyphs" textLength="276" x="208" y="16.708">Common dependency relations</text><!--entity Todos--><ellipse cx="461.5" cy="430.25" fill="#7AFF7F" filter="url(#fr5zqne)" rx="8" ry="8" style="stroke: #7A3A7A; stroke-width: 2.0;"/><text fill="#333333" font-family="sans-serif" font-size="11" lengthAdjust="spacingAndGlyphs" textLength="35" x="444" y="449.4604">Todos</text><text fill="#000033" font-family="sans-serif" font-size="14" font-style="italic" lengthAdjust="spacingAndGlyphs" textLength="67" x="428" y="417.9482">«Source»</text><!--entity TodosHook--><ellipse cx="596.5" cy="430.25" fill="#7AFFFF" filter="url(#fr5zqne)" rx="8" ry="8" style="stroke: #7A3A7A; stroke-width: 2.0;"/><text fill="#333333" font-family="sans-serif" font-size="11" lengthAdjust="spacingAndGlyphs" textLength="63" x="565" y="449.4604">TodosHook</text><text fill="#000033" font-family="sans-serif" font-size="14" font-style="italic" lengthAdjust="spacingAndGlyphs" textLength="55" x="569" y="417.9482">«Hook»</text><!--entity User--><ellipse cx="199.5" cy="430.25" fill="#7AFF7F" filter="url(#fr5zqne)" rx="8" ry="8" style="stroke: #7A3A7A; stroke-width: 2.0;"/><text fill="#333333" font-family="sans-serif" font-size="11" lengthAdjust="spacingAndGlyphs" textLength="27" x="186" y="449.4604">User</text><text fill="#000033" font-family="sans-serif" font-size="14" font-style="italic" lengthAdjust="spacingAndGlyphs" textLength="67" x="166" y="417.9482">«Source»</text><!--entity UserHook--><ellipse cx="330.5" cy="430.25" fill="#7AFFFF" filter="url(#fr5zqne)" rx="8" ry="8" style="stroke: #7A3A7A; stroke-width: 2.0;"/><text fill="#333333" font-family="sans-serif" font-size="11" lengthAdjust="spacingAndGlyphs" textLength="55" x="303" y="449.4604">UserHook</text><text fill="#000033" font-family="sans-serif" font-size="14" font-style="italic" lengthAdjust="spacingAndGlyphs" textLength="55" x="303" y="417.9482">«Hook»</text><!--entity UserId--><ellipse cx="212.5" cy="296.25" fill="#D1DAFF" filter="url(#fr5zqne)" rx="8" ry="8" style="stroke: #7A3A7A; stroke-width: 2.0;"/><text fill="#333333" font-family="sans-serif" font-size="11" lengthAdjust="spacingAndGlyphs" textLength="37" x="194" y="315.4604">UserId</text><text fill="#000033" font-family="sans-serif" font-size="14" font-style="italic" lengthAdjust="spacingAndGlyphs" textLength="91" x="167" y="283.9482">«Computed»</text><!--entity FilteredTodos--><ellipse cx="51.5" cy="296.25" fill="#D1DAFF" filter="url(#fr5zqne)" rx="8" ry="8" style="stroke: #7A3A7A; stroke-width: 2.0;"/><text fill="#333333" font-family="sans-serif" font-size="11" lengthAdjust="spacingAndGlyphs" textLength="77" x="13" y="315.4604">FilteredTodos</text><text fill="#000033" font-family="sans-serif" font-size="14" font-style="italic" lengthAdjust="spacingAndGlyphs" textLength="91" x="6" y="283.9482">«Computed»</text><!--entity UserService--><ellipse cx="570.5" cy="296.25" fill="#FF7AFF" filter="url(#fr5zqne)" rx="8" ry="8" style="stroke: #7A3A7A; stroke-width: 2.0;"/><text fill="#333333" font-family="sans-serif" font-size="11" lengthAdjust="spacingAndGlyphs" textLength="69" x="536" y="315.4604">UserService</text><text fill="#000033" font-family="sans-serif" font-size="14" font-style="italic" lengthAdjust="spacingAndGlyphs" textLength="62" x="539.5" y="283.9482">«Action»</text><!--entity UserLoadingStatus--><ellipse cx="328.5" cy="162.25" fill="#FFEF7A" filter="url(#fr5zqne)" rx="8" ry="8" style="stroke: #7A3A7A; stroke-width: 2.0;"/><text fill="#333333" font-family="sans-serif" font-size="11" lengthAdjust="spacingAndGlyphs" textLength="108" x="274.5" y="181.4604">UserLoadingStatus</text><text fill="#000033" font-family="sans-serif" font-size="14" font-style="italic" lengthAdjust="spacingAndGlyphs" textLength="61" x="298" y="149.9482">«Status»</text><!--entity TodosFilter--><ellipse cx="51.5" cy="430.25" fill="#7AFF7F" filter="url(#fr5zqne)" rx="8" ry="8" style="stroke: #7A3A7A; stroke-width: 2.0;"/><text fill="#333333" font-family="sans-serif" font-size="11" lengthAdjust="spacingAndGlyphs" textLength="63" x="20" y="449.4604">TodosFilter</text><text fill="#000033" font-family="sans-serif" font-size="14" font-style="italic" lengthAdjust="spacingAndGlyphs" textLength="67" x="18" y="417.9482">«Source»</text><!--entity TodosView--><ellipse cx="328.5" cy="54.25" fill="#FF7A7A" filter="url(#fr5zqne)" rx="8" ry="8" style="stroke: #7A3A7A; stroke-width: 2.0;"/><text fill="#333333" font-family="sans-serif" font-size="11" lengthAdjust="spacingAndGlyphs" textLength="61" x="298" y="73.4604">TodosView</text><text fill="#000033" font-family="sans-serif" font-size="14" font-style="italic" lengthAdjust="spacingAndGlyphs" textLength="100" x="278.5" y="41.9482">«Component»</text><path d="M500.416,428.4531 C521.897,428.4531 543.378,428.4531 564.859,428.4531 " fill="none" style="stroke: #7A7A7A; stroke-width: 1.0;"/><polygon fill="#7A7A7A" points="495.25,428.4531,504.25,432.4531,500.25,428.4531,504.25,424.4531,495.25,428.4531" style="stroke: #7A7A7A; stroke-width: 1.0;"/><path d="M363.317,428.4531 C384.874,428.4531 406.43,428.4531 427.986,428.4531 " fill="none" style="stroke: #7A7A7A; stroke-width: 1.0;"/><polygon fill="#7A7A7A" points="358.133,428.4531,367.133,432.4531,363.133,428.4531,367.133,424.4531,358.133,428.4531" style="stroke: #7A7A7A; stroke-width: 1.0;"/><path d="M230.573,401.5217 C249.977,386.5325 276.281,369.3464 303,361.4531 C384.837,337.2761 413.272,336.9111 495,361.4531 C523.311,369.9546 551.013,389.1955 570.305,404.8869 " fill="none" style="stroke: #7A7A7A; stroke-width: 1.0;"/><polygon fill="#7A7A7A" points="226.292,404.8799,235.8422,402.4729,230.2262,401.7942,230.905,396.1782,226.292,404.8799" style="stroke: #7A7A7A; stroke-width: 1.0;"/><path d="M233.018,428.4531 C254.522,428.4531 276.026,428.4531 297.53,428.4531 " fill="none" style="stroke: #7A7A7A; stroke-width: 1.0;"/><polygon fill="#7A7A7A" points="302.702,428.4531,293.702,424.4531,297.702,428.4531,293.702,432.4531,302.702,428.4531" style="stroke: #7A7A7A; stroke-width: 1.0;"/><path d="M209.774,323.1371 C207.392,347.3161 203.977,381.9919 201.749,404.6159 " fill="none" style="stroke: #7A7A7A; stroke-width: 1.0;"/><polygon fill="#7A7A7A" points="210.265,318.1451,205.4022,326.7098,209.775,323.1211,213.3637,327.4938,210.265,318.1451" style="stroke: #7A7A7A; stroke-width: 1.0;"/><path d="M574.97,318.1451 C579.416,340.7171 586.245,375.389 591.016,399.6133 " fill="none" style="stroke: #7A7A7A; stroke-width: 1.0; stroke-dasharray: 7.0,7.0;"/><polygon fill="#7A7A7A" points="592.002,404.6159,594.1873,395.0126,591.0357,399.7102,586.3381,396.5586,592.002,404.6159" style="stroke: #7A7A7A; stroke-width: 1.0;"/><text fill="#333333" font-family="sans-serif" font-size="11" lengthAdjust="spacingAndGlyphs" textLength="86" x="586.5" y="359.1636">Change source</text><text fill="#333333" font-family="sans-serif" font-size="11" lengthAdjust="spacingAndGlyphs" textLength="54" x="602.5" y="371.9683">via hooks</text><path d="M535.858,314.5061 C489.423,340.0451 407.632,385.0308 362.554,409.8232 " fill="none" style="stroke: #7A7A7A; stroke-width: 1.0; stroke-dasharray: 7.0,7.0;"/><polygon fill="#7A7A7A" points="358.043,412.3045,367.8568,411.4738,362.4245,409.8957,364.0026,404.4634,358.043,412.3045" style="stroke: #7A7A7A; stroke-width: 1.0;"/><path d="M102.3142,311.8131 C187.261,339.1611 355.855,393.4406 427.748,416.5866 " fill="none" style="stroke: #7A7A7A; stroke-width: 1.0;"/><polygon fill="#7A7A7A" points="97.3388,310.2111,104.6802,316.7765,102.0983,311.7432,107.1316,309.1614,97.3388,310.2111" style="stroke: #7A7A7A; stroke-width: 1.0;"/><path d="M102.2816,294.4531 C123.844,294.4531 145.407,294.4531 166.969,294.4531 " fill="none" style="stroke: #7A7A7A; stroke-width: 1.0;"/><polygon fill="#7A7A7A" points="97.0957,294.4531,106.0957,298.4531,102.0957,294.4531,106.0957,290.4531,97.0957,294.4531" style="stroke: #7A7A7A; stroke-width: 1.0;"/><path d="M51.5,323.4411 C51.5,347.6061 51.5,382.0865 51.5,404.6159 " fill="none" style="stroke: #7A7A7A; stroke-width: 1.0;"/><polygon fill="#7A7A7A" points="51.5,318.1451,47.5,327.1451,51.5,323.1451,55.5,327.1451,51.5,318.1451" style="stroke: #7A7A7A; stroke-width: 1.0;"/><path d="M342.136,188.7261 C368.46,241.3721 425.824,356.1007 450.189,404.8315 " fill="none" style="stroke: #7A7A7A; stroke-width: 1.0; stroke-dasharray: 7.0,7.0;"/><polygon fill="#7A7A7A" points="339.84,184.1321,340.286,193.9709,342.0755,188.6045,347.4418,190.3941,339.84,184.1321" style="stroke: #7A7A7A; stroke-width: 1.0;"/><text fill="#333333" font-family="sans-serif" font-size="11" lengthAdjust="spacingAndGlyphs" textLength="49" x="407.5" y="292.1636">Grabbed</text><text fill="#333333" font-family="sans-serif" font-size="11" lengthAdjust="spacingAndGlyphs" textLength="18" x="423" y="304.9683">src</text><path d="M321.61,189.3231 C317.609,204.6811 312.234,224.0131 306.5,240.9531 C294.673,275.8971 293.016,285.4851 275.5,317.9531 C258.36,349.7241 233.888,383.4356 217.384,404.9249 " fill="none" style="stroke: #7A7A7A; stroke-width: 1.0; stroke-dasharray: 7.0,7.0;"/><polygon fill="#7A7A7A" points="322.913,184.2761,316.7901,191.9904,321.663,189.1174,324.5361,193.9903,322.913,184.2761" style="stroke: #7A7A7A; stroke-width: 1.0;"/><text fill="#333333" font-family="sans-serif" font-size="11" lengthAdjust="spacingAndGlyphs" textLength="49" x="297.5" y="292.1636">Grabbed</text><text fill="#333333" font-family="sans-serif" font-size="11" lengthAdjust="spacingAndGlyphs" textLength="18" x="313" y="304.9683">src</text><path d="M280.669,184.0141 C261.079,193.2701 238.192,204.1051 217.5,213.9531 C178.725,232.4081 134.913,253.3961 102.0391,269.1711 " fill="none" style="stroke: #7A7A7A; stroke-width: 1.0; stroke-dasharray: 7.0,7.0;"/><polygon fill="#7A7A7A" points="97.2701,271.4601,107.1147,271.1714,101.7777,269.2964,103.6527,263.9593,97.2701,271.4601" style="stroke: #7A7A7A; stroke-width: 1.0;"/><text fill="#333333" font-family="sans-serif" font-size="11" lengthAdjust="spacingAndGlyphs" textLength="83" x="218.5" y="225.1636">Look into deep</text><text fill="#333333" font-family="sans-serif" font-size="11" lengthAdjust="spacingAndGlyphs" textLength="23" x="248.5" y="237.9683">tree</text><path d="M298.621,79.3411 C244.102,126.5771 129.357,225.9961 77.692,270.7601 " fill="none" style="stroke: #7A7A7A; stroke-width: 1.0;"/><polygon fill="#7A7A7A" points="302.441,76.0321,293.0199,78.9031,298.6623,79.3065,298.2589,84.949,302.441,76.0321" style="stroke: #7A7A7A; stroke-width: 1.0;"/><path d="M328.5,81.3941 C328.5,98.6661 328.5,120.5521 328.5,136.7511 " fill="none" style="stroke: #7A7A7A; stroke-width: 1.0;"/><polygon fill="#7A7A7A" points="328.5,76.1931,324.5,85.1931,328.5,81.1931,332.5,85.1931,328.5,76.1931" style="stroke: #7A7A7A; stroke-width: 1.0;"/><path d="M354.89,79.6251 C402.634,126.9751 502.571,226.0851 547.617,270.7601 " fill="none" style="stroke: #7A7A7A; stroke-width: 1.0;"/><polygon fill="#7A7A7A" points="351.267,76.0321,354.8415,85.2094,354.8175,79.5526,360.4743,79.5286,351.267,76.0321" style="stroke: #7A7A7A; stroke-width: 1.0;"/><text fill="#333333" font-family="sans-serif" font-size="11" lengthAdjust="spacingAndGlyphs" textLength="81" x="461.5" y="164.6636">EventChanges</text><polygon fill="#DDDDDD" points="130,469.9531,130,577.7344,561,577.7344,561,469.9531,130,469.9531" style="stroke: #000000; stroke-width: 1.0;"/><text fill="#000000" filter="url(#bkp3v4u0)" font-family="sans-serif" font-size="14" font-weight="bold" lengthAdjust="spacingAndGlyphs" textLength="91" x="136" y="487.9482">Component</text><text fill="#000000" font-family="sans-serif" font-size="14" lengthAdjust="spacingAndGlyphs" textLength="158" x="231" y="487.9482">- Pure function with JSX</text><text fill="#000000" filter="url(#bkp3v4u1)" font-family="sans-serif" font-size="14" font-weight="bold" lengthAdjust="spacingAndGlyphs" textLength="56" x="136" y="504.2451">Source</text><text fill="#000000" font-family="sans-serif" font-size="14" lengthAdjust="spacingAndGlyphs" textLength="169" x="196" y="504.2451">- Only data struct: model</text><text fill="#000000" filter="url(#bkp3v4u2)" font-family="sans-serif" font-size="14" font-weight="bold" lengthAdjust="spacingAndGlyphs" textLength="40" x="136" y="520.542">Hook</text><text fill="#000000" font-family="sans-serif" font-size="14" lengthAdjust="spacingAndGlyphs" textLength="282" x="180" y="520.542">- Source lifecycle callbacks: pull, put,reap</text><text fill="#000000" filter="url(#bkp3v4u3)" font-family="sans-serif" font-size="14" font-weight="bold" lengthAdjust="spacingAndGlyphs" textLength="81" x="136" y="536.8389">Computed</text><text fill="#000000" font-family="sans-serif" font-size="14" lengthAdjust="spacingAndGlyphs" textLength="299" x="221" y="536.8389">- Computed from source: or other derivable</text><text fill="#000000" filter="url(#bkp3v4u4)" font-family="sans-serif" font-size="14" font-weight="bold" lengthAdjust="spacingAndGlyphs" textLength="50" x="136" y="553.1357">Action</text><text fill="#000000" font-family="sans-serif" font-size="14" lengthAdjust="spacingAndGlyphs" textLength="285" x="190" y="553.1357">- Univeral source manager, modify source</text><text fill="#000000" filter="url(#bkp3v4u5)" font-family="sans-serif" font-size="14" font-weight="bold" lengthAdjust="spacingAndGlyphs" textLength="50" x="136" y="569.4326">Status</text><text fill="#000000" font-family="sans-serif" font-size="14" lengthAdjust="spacingAndGlyphs" textLength="365" x="190" y="569.4326">- Grab and combine sources statuses from any entity</text></g></svg>