<?xml version="1.0" encoding="UTF-8" standalone="yes"?><svg xmlns="http://www.w3.org/2000/svg" xmlns:xlink="http://www.w3.org/1999/xlink" height="801px" style="width:683px;height:801px;" version="1.1" viewBox="0 0 683 801" width="683px"><defs><filter height="300%" id="f1" width="300%" x="-1" y="-1"><feGaussianBlur result="blurOut" stdDeviation="2.0"/><feColorMatrix in="blurOut" result="blurOut2" type="matrix" values="0 0 0 0 0 0 0 0 0 0 0 0 0 0 0 0 0 0 .4 0"/><feOffset dx="4.0" dy="4.0" in="blurOut2" result="blurOut3"/><feBlend in="SourceGraphic" in2="blurOut3" mode="normal"/></filter></defs><g><rect fill="#FEFECE" filter="url(#f1)" height="60.8906" style="stroke: #A80036; stroke-width: 1.5;" width="86" x="326" y="8"/><text fill="#000000" font-family="sans-serif" font-size="12" lengthAdjust="spacingAndGlyphs" textLength="72" x="333" y="21.1387">Component</text><line style="stroke: #A80036; stroke-width: 1.5;" x1="327" x2="411" y1="25.9688" y2="25.9688"/><text fill="#000000" font-family="sans-serif" font-size="10" lengthAdjust="spacingAndGlyphs" textLength="35" x="332" y="39.251">render,</text><text fill="#000000" font-family="sans-serif" font-size="10" lengthAdjust="spacingAndGlyphs" textLength="35" x="332" y="50.8916">mount,</text><text fill="#000000" font-family="sans-serif" font-size="10" lengthAdjust="spacingAndGlyphs" textLength="44" x="332" y="62.5322">unmount</text><rect fill="#FEFECE" filter="url(#f1)" height="60.8906" style="stroke: #A80036; stroke-width: 1.5;" width="70" x="164" y="161"/><text fill="#000000" font-family="sans-serif" font-size="12" lengthAdjust="spacingAndGlyphs" textLength="39" x="179.5" y="174.1387">Hooks</text><line style="stroke: #A80036; stroke-width: 1.5;" x1="165" x2="233" y1="178.9688" y2="178.9688"/><text fill="#000000" font-family="sans-serif" font-size="10" lengthAdjust="spacingAndGlyphs" textLength="43" x="170" y="192.251">onMount</text><text fill="#000000" font-family="sans-serif" font-size="10" lengthAdjust="spacingAndGlyphs" textLength="58" x="170" y="203.8916">onUnmount</text><text fill="#000000" font-family="sans-serif" font-size="10" lengthAdjust="spacingAndGlyphs" textLength="48" x="170" y="215.5322">onUpdate</text><rect fill="#FEFECE" filter="url(#f1)" height="49.25" style="stroke: #A80036; stroke-width: 1.5;" width="106" x="6" y="411"/><text fill="#000000" font-family="sans-serif" font-size="12" lengthAdjust="spacingAndGlyphs" textLength="42" x="38" y="424.1387">Theme</text><line style="stroke: #A80036; stroke-width: 1.5;" x1="7" x2="111" y1="428.9688" y2="428.9688"/><text fill="#000000" font-family="sans-serif" font-size="10" lengthAdjust="spacingAndGlyphs" textLength="87" x="12" y="442.251">attach css to dom</text><text fill="#000000" font-family="sans-serif" font-size="10" lengthAdjust="spacingAndGlyphs" textLength="94" x="12" y="453.8916">on mount/unmount</text><rect fill="#FEFECE" filter="url(#f1)" height="60.8906" style="stroke: #A80036; stroke-width: 1.5;" width="136" x="299" y="252"/><text fill="#000000" font-family="sans-serif" font-size="12" lengthAdjust="spacingAndGlyphs" textLength="39" x="347.5" y="265.1387">Action</text><line style="stroke: #A80036; stroke-width: 1.5;" x1="300" x2="434" y1="269.9688" y2="269.9688"/><text fill="#000000" font-family="sans-serif" font-size="10" lengthAdjust="spacingAndGlyphs" textLength="124" x="305" y="283.251">Function or class method.</text><text fill="#000000" font-family="sans-serif" font-size="10" lengthAdjust="spacingAndGlyphs" textLength="73" x="305" y="294.8916">Validate, fetch,</text><text fill="#000000" font-family="sans-serif" font-size="10" lengthAdjust="spacingAndGlyphs" textLength="106" x="305" y="306.5322">call Updater. «Action»</text><rect fill="#FEFECE" filter="url(#f1)" height="60.8906" style="stroke: #A80036; stroke-width: 1.5;" width="148" x="218" y="490"/><text fill="#000000" font-family="sans-serif" font-size="12" lengthAdjust="spacingAndGlyphs" textLength="51" x="266.5" y="503.1387">Updater</text><line style="stroke: #A80036; stroke-width: 1.5;" x1="219" x2="365" y1="507.9688" y2="507.9688"/><text fill="#000000" font-family="sans-serif" font-size="10" lengthAdjust="spacingAndGlyphs" textLength="136" x="224" y="521.251">Transactional state updates.</text><text fill="#000000" font-family="sans-serif" font-size="10" lengthAdjust="spacingAndGlyphs" textLength="47" x="224" y="532.8916">Rollbacks.</text><text fill="#000000" font-family="sans-serif" font-size="10" lengthAdjust="spacingAndGlyphs" textLength="89" x="224" y="544.5322">Promise resolving.</text><rect fill="#FEFECE" filter="url(#f1)" height="37.6094" style="stroke: #A80036; stroke-width: 1.5;" width="153" x="103.5" y="628"/><text fill="#000000" font-family="sans-serif" font-size="12" lengthAdjust="spacingAndGlyphs" textLength="44" x="158" y="641.1387">Source</text><line style="stroke: #A80036; stroke-width: 1.5;" x1="104.5" x2="255.5" y1="645.9688" y2="645.9688"/><text fill="#000000" font-family="sans-serif" font-size="10" lengthAdjust="spacingAndGlyphs" textLength="141" x="109.5" y="659.251">immutable observable model</text><rect fill="#FEFECE" filter="url(#f1)" height="49.25" style="stroke: #A80036; stroke-width: 1.5;" width="201" x="172.5" y="743"/><text fill="#000000" font-family="sans-serif" font-size="12" lengthAdjust="spacingAndGlyphs" textLength="64" x="241" y="756.1387">Computed</text><line style="stroke: #A80036; stroke-width: 1.5;" x1="173.5" x2="372.5" y1="760.9688" y2="760.9688"/><text fill="#000000" font-family="sans-serif" font-size="10" lengthAdjust="spacingAndGlyphs" textLength="69" x="178.5" y="774.251">dependencies,</text><text fill="#000000" font-family="sans-serif" font-size="10" lengthAdjust="spacingAndGlyphs" textLength="189" x="178.5" y="785.8916">described in component state interface</text><rect fill="#FEFECE" filter="url(#f1)" height="37.6094" style="stroke: #A80036; stroke-width: 1.5;" width="226" x="292" y="628"/><text fill="#000000" font-family="sans-serif" font-size="12" lengthAdjust="spacingAndGlyphs" textLength="92" x="359" y="641.1387">UpdaterStatus</text><line style="stroke: #A80036; stroke-width: 1.5;" x1="293" x2="517" y1="645.9688" y2="645.9688"/><text fill="#000000" font-family="sans-serif" font-size="10" lengthAdjust="spacingAndGlyphs" textLength="214" x="298" y="659.251">Combine fetch status from many Updaters.</text><rect fill="#FEFECE" filter="url(#f1)" height="37.6094" style="stroke: #A80036; stroke-width: 1.5;" width="146" x="141" y="343"/><text fill="#000000" font-family="sans-serif" font-size="12" lengthAdjust="spacingAndGlyphs" textLength="43" x="192.5" y="356.1387">Loader</text><line style="stroke: #A80036; stroke-width: 1.5;" x1="142" x2="286" y1="360.9688" y2="360.9688"/><text fill="#000000" font-family="sans-serif" font-size="10" lengthAdjust="spacingAndGlyphs" textLength="134" x="147" y="374.251">Invoke updater on onMount</text><path d="M325.944,40.948 C284.965,44.895 225.333,57.892 196,99 C184.524,115.083 184.9,137.123 188.325,155.541 " fill="none" style="stroke: #A80036; stroke-width: 1.0; stroke-dasharray: 7.0,7.0;"/><polygon fill="#A80036" points="189.364,160.632,191.4836,151.0139,188.3642,155.733,183.6451,152.6136,189.364,160.632" style="stroke: #A80036; stroke-width: 1.0;"/><text fill="#000000" font-family="sans-serif" font-size="13" lengthAdjust="spacingAndGlyphs" textLength="128" x="197" y="112.0669">on mount, unmount</text><text fill="#000000" font-family="sans-serif" font-size="13" lengthAdjust="spacingAndGlyphs" textLength="0" x="263" y="127.1997"/><path d="M181.833,222.174 C154.656,269.152 102.0751,360.042 75.3903,406.168 " fill="none" style="stroke: #A80036; stroke-width: 1.0;"/><polygon fill="#A80036" points="72.7347,410.759,80.7044,404.9725,75.2389,406.4313,73.7801,400.9658,72.7347,410.759" style="stroke: #A80036; stroke-width: 1.0;"/><path d="M55.1415,460.07 C49.1834,504.556 42.5608,602.147 86,666 C110.007,701.2887 150.558,725.216 187.774,740.8398 " fill="none" style="stroke: #A80036; stroke-width: 1.0;"/><polygon fill="#A80036" points="192.765,742.8943,185.9665,735.7683,188.1418,740.9902,182.9199,743.1654,192.765,742.8943" style="stroke: #A80036; stroke-width: 1.0;"/><text fill="#000000" font-family="sans-serif" font-size="13" lengthAdjust="spacingAndGlyphs" textLength="131" x="59" y="594.0669">provide class names</text><path d="M373.889,746.2609 C460.341,725.9314 571,691.428 571,648 C571,190.5 571,190.5 571,190.5 C571,114.055 477.045,71.648 417.29,52.407 " fill="none" style="stroke: #A80036; stroke-width: 1.0;"/><polygon fill="#A80036" points="412.334,50.838,419.7078,57.367,417.101,52.3465,422.1214,49.7397,412.334,50.838" style="stroke: #A80036; stroke-width: 1.0;"/><text fill="#000000" font-family="sans-serif" font-size="13" lengthAdjust="spacingAndGlyphs" textLength="110" x="572" y="440.0669">component state</text><path d="M194.327,666.256 C209.485,685.569 233.588,716.2809 251.124,738.6255 " fill="none" style="stroke: #A80036; stroke-width: 1.0;"/><polygon fill="#A80036" points="254.318,742.6957,251.9075,733.1464,251.2308,738.7626,245.6146,738.0859,254.318,742.6957" style="stroke: #A80036; stroke-width: 1.0;"/><text fill="#000000" font-family="sans-serif" font-size="13" lengthAdjust="spacingAndGlyphs" textLength="29" x="231" y="709.0669">data</text><path d="M201.647,222.237 C204.577,255.145 209.237,307.501 211.918,337.612 " fill="none" style="stroke: #A80036; stroke-width: 1.0;"/><polygon fill="#A80036" points="212.395,342.966,215.5821,333.6471,211.9521,337.9857,207.6135,334.3557,212.395,342.966" style="stroke: #A80036; stroke-width: 1.0;"/><text fill="#000000" font-family="sans-serif" font-size="13" lengthAdjust="spacingAndGlyphs" textLength="62" x="211" y="287.0669">on mount</text><path d="M358.742,313.033 C348.761,348.229 331.159,408.725 314,460 C311.279,468.13 308.179,476.817 305.182,484.971 " fill="none" style="stroke: #A80036; stroke-width: 1.0;"/><polygon fill="#A80036" points="303.333,489.969,310.2062,482.915,305.0672,485.2794,302.7028,480.1403,303.333,489.969" style="stroke: #A80036; stroke-width: 1.0;"/><text fill="#000000" font-family="sans-serif" font-size="13" lengthAdjust="spacingAndGlyphs" textLength="101" x="358" y="359.0669">new Source() or</text><text fill="#000000" font-family="sans-serif" font-size="13" lengthAdjust="spacingAndGlyphs" textLength="119" x="351" y="374.1997">Promise&lt;Source&gt;</text><path d="M265.458,551.005 C245.324,573.386 218.088,603.661 199.825,623.962 " fill="none" style="stroke: #A80036; stroke-width: 1.0;"/><polygon fill="#A80036" points="196.297,627.884,205.2902,623.8687,199.6412,624.167,199.3429,618.518,196.297,627.884" style="stroke: #A80036; stroke-width: 1.0;"/><text fill="#000000" font-family="sans-serif" font-size="13" lengthAdjust="spacingAndGlyphs" textLength="58" x="237" y="594.0669">new data</text><path d="M318.779,551.005 C339.093,573.386 366.572,603.661 384.998,623.962 " fill="none" style="stroke: #A80036; stroke-width: 1.0;"/><polygon fill="#A80036" points="388.557,627.884,385.4713,618.531,385.1971,624.1812,379.5468,623.9069,388.557,627.884" style="stroke: #A80036; stroke-width: 1.0;"/><text fill="#000000" font-family="sans-serif" font-size="13" lengthAdjust="spacingAndGlyphs" textLength="84" x="360" y="594.0669">loader status</text><path d="M384.664,666.256 C362.972,685.73 328.372,716.7914 303.432,739.18 " fill="none" style="stroke: #A80036; stroke-width: 1.0;"/><polygon fill="#A80036" points="299.516,742.6957,308.8854,739.6602,303.2368,739.3557,303.5413,733.707,299.516,742.6957" style="stroke: #A80036; stroke-width: 1.0;"/><text fill="#000000" font-family="sans-serif" font-size="13" lengthAdjust="spacingAndGlyphs" textLength="90" x="352" y="709.0669">loading status</text><path d="M223.1,381.259 C235.778,406.697 258.992,453.273 274.944,485.279 " fill="none" style="stroke: #A80036; stroke-width: 1.0;"/><polygon fill="#A80036" points="277.243,489.892,276.8084,480.0527,275.0126,485.417,269.6484,483.6213,277.243,489.892" style="stroke: #A80036; stroke-width: 1.0;"/><text fill="#000000" font-family="sans-serif" font-size="13" lengthAdjust="spacingAndGlyphs" textLength="41" x="264" y="440.0669">invoke</text><path d="M368.755,69.174 C368.383,114.109 367.68,199.218 367.286,246.903 " fill="none" style="stroke: #A80036; stroke-width: 1.0;"/><polygon fill="#A80036" points="367.244,251.962,371.3185,242.9955,367.2854,246.9622,363.3187,242.9292,367.244,251.962" style="stroke: #A80036; stroke-width: 1.0;"/><text fill="#000000" font-family="sans-serif" font-size="13" lengthAdjust="spacingAndGlyphs" textLength="75" x="370" y="119.5669">user events</text></g></svg>